<svg xmlns="http://www.w3.org/2000/svg" viewBox="0 0 408.26 204.01">
  <path fill="#e99c67"
    d="M21.37,7.89s35.41-31.06,70.88,30.05c0,0,4.71,13.48,13.81,26.95,9.1,13.48,46.13,59.22,58.69,94.33,0,0,7.22,15.36-5.31,31.04-12.53,15.68-22.25,17.26-34.48,8.18C112.73,189.36,12.35,108.54.08,40.51c0,0-2.52-13.79,21.3-32.62Z" />
  <path fill="#e99c67"
    d="M408.26,108.97s.76,31.59-90.73,38.87c0,0-21.44,3.9-20.19-9.19,1.25-13.09,1.83-15.91,18.77-22.91,0,0,2.28-25.09,29.98-45.01,2.15-1.54,5.19-.53,6.01,1.99,1.51,4.59,1.76,12.06-7.39,19.56-1.98,1.62-3.23,4.01-3.35,6.56-.17,3.36,1.02,7.03,7.55,5.6,0,0,10.76-3.76,28.4-18.98,6.99-6.03,15.2-3.47,22.86,1.69,6.37,4.28,7.99,10.93,8.08,21.84Z" />
  <path fill="#e99c67"
    d="M321.41,146s-4.08,2.01-11.48,5.33c-6.98,3.13-16.91,7.41-29.18,12.26-33.26,13.14-83.65,30.4-138.63,39.88,0,0-23.75-.35-23.51-18.59.24-18.25,4.31-32.76,15.85-36.04,9.65-2.74,69.79-19.67,139.61-28.79,9.33-1.22,18.83-2.3,28.41-3.18,4.53-.42,9.08-.8,13.63-1.13,0,0,10.49-2.53,14.32,7.41,3.83,9.95.05,18.6-9.02,22.85Z" />
  <path fill="#fe4325"
    d="M309.93,151.33c-6.98,3.13-16.91,7.41-29.18,12.26-8.64-14.36-8.19-32.29-6.68-43.54,9.33-1.22,18.83-2.3,28.41-3.18.65,18.19,4.26,28.67,7.45,34.46Z" />
</svg>